<svg xmlns="http://www.w3.org/2000/svg" version="1.1" xmlns:xlink="http://www.w3.org/1999/xlink" xmlns:svgjs="http://svgjs.dev/svgjs" width="100%" height="100%" viewBox="0 0 1000 600"><rect width="1000" height="600" x="0" y="0" fill="#ffffff"/><g><rect width="333.3333333333333" height="333.3333333333333" rx="13.333333333333334" ry="13.333333333333334" y="239.38561057186126" fill="#ec0000" transform="matrix(0.5756036249537662,0,0,0.5756036249537662,0,66.27486755175586)" x="217.16343688964844"/><path d="M384.5659597122356 481.05228888385653L384.5659597122356 481.05228888385653Q366.9053208495115 481.05228888385653 354.4389875346474 474.2996916716385Q341.97265421978335 467.5470944594205 333.2289065475523 455.7156207115171L333.2289065475523 455.7156207115171L346.1280986580714 444.9230080731857Q353.8041279676868 455.0807611445564 363.1538779538348 460.3904957045911Q372.50362793998283 465.7002302646258 385.17196202615264 465.7002302646258L385.17196202615264 465.7002302646258Q400.7548786697327 465.7002302646258 408.9791957871778 458.19734447327244Q417.17465565157914 450.7233159349627 417.17465565157914 438.25698262009865L417.17465565157914 438.25698262009865Q417.17465565157914 427.8683715243786 410.9414889941471 422.27006443390724Q404.70832233671507 416.6429000903922 390.3662675740127 413.3243159903705L390.3662675740127 413.3243159903705L378.53479382610925 410.6405914573095Q358.59443197293547 406.0522882233665 348.0903918650407 396.81796724939306Q337.6152090101897 387.55478902237604 337.6152090101897 370.73101049791825L337.6152090101897 370.73101049791825Q337.6152090101897 361.1792597404645 341.13579388151703 353.70523120215483Q344.6563787528444 346.2312026638451 351.0049744224511 341.23889788729076Q357.3535700920578 336.24659311073634 366.18388952341985 333.6494403368064Q375.0142089547819 331.05228756287636 385.6048208218076 331.05228756287636L385.6048208218076 331.05228756287636Q402.02459780365405 331.05228756287636 413.7406425393828 337.0834534490027Q425.4855445281552 343.1146193351291 433.5944326334255 354.74409231172683L433.5944326334255 354.74409231172683L420.4932397516008 364.29584306918053Q414.4909311185181 355.9849541926045 405.94918421759274 351.19465018735576Q397.43629456971104 346.4332034351508 384.7679604835413 346.4332034351508L384.7679604835413 346.4332034351508Q370.85876451649386 346.4332034351508 362.8364481703545 352.3489403091025Q354.8429890772588 358.2646771830542 354.8429890772588 370.1250081840013L354.8429890772588 370.1250081840013Q354.8429890772588 380.5136192797213 361.59558628947684 385.79449658671234Q368.34818350169485 391.10423114674705 382.0553786974366 394.22081447546304L382.0553786974366 394.22081447546304L393.9157096983837 396.90453900852407Q415.2989342037408 401.69484301377275 424.8795422142382 411.44859454253213Q434.4312929716919 421.23120332433524 434.4312929716919 437.42012228183233L434.4312929716919 437.42012228183233Q434.4312929716919 447.40473183494106 430.99727985949556 455.5136199402114Q427.56326674729917 463.62250804548177 421.12809931856145 469.22081513595316Q414.6929318898238 474.81912222642455 405.4297536628067 477.93570555514054Q396.19543268883336 481.05228888385653 384.5659597122356 481.05228888385653Z " fill="#ffffff" transform="matrix(0.5756036249537662,0,0,0.5756036249537662,0,66.27486755175586)"/><path d="M683.1189840698001 481.05228895412665L683.1189840698001 481.05228895412665Q666.1629439820804 481.05228895412665 654.193974508396 474.5690971558809Q642.2250050347114 468.0859053576351 633.8301028344188 456.7264667367771L633.8301028344188 456.7264667367771L646.2146615259396 446.3644422387262Q653.5844436555694 456.1169358839506 662.5611707608327 461.2148302894088Q671.5378978660962 466.31272469486703 683.700808974771 466.31272469486703L683.700808974771 466.31272469486703Q698.6620208168765 466.31272469486703 706.5582159557657 459.1091782523717Q714.426705146799 451.9333377577322 714.426705146799 439.9643682840477L714.426705146799 439.9643682840477Q714.426705146799 429.99022705597724 708.4422204099567 424.6152731719615Q702.4577356731145 419.21261334009006 688.6878795888061 416.02642933667863L688.6878795888061 416.02642933667863L677.3284409679482 413.4497761860938Q658.1836309996241 409.04453047702935 648.0986659801307 400.178627163189Q638.041406908493 391.28501790149284 638.041406908493 375.1324503015899L638.041406908493 375.1324503015899Q638.041406908493 365.9617815613363 641.4215325468947 358.7859410666967Q644.8016581852963 351.61010057205715 650.8969667135616 346.81697159301217Q656.9922752418267 342.02384261396725 665.4702952856867 339.5303073069496Q673.9483153295465 337.03677199993206 684.1163981926072 337.03677199993206L684.1163981926072 337.03677199993206Q699.8810825225296 337.03677199993206 711.1296973519646 342.82731510178405Q722.4060181292554 348.61785820363605 730.1913894767214 359.78335518950377L730.1913894767214 359.78335518950377L717.6128891502103 368.9540239297574Q711.8500519962141 360.97471094730105 703.6490914309118 356.37552360324634Q695.4758368134652 351.8040422070474 683.3129257047904 351.8040422070474L683.3129257047904 351.8040422070474Q669.9586588383183 351.8040422070474 662.2564053344195 357.4837615174764Q654.5818577783764 363.1634808279054 654.5818577783764 374.5506253966191L654.5818577783764 374.5506253966191Q654.5818577783764 384.52476662468956 661.0650495766222 389.594955082292Q667.548241374868 394.69284948775027 680.7085666063499 397.68509185617137L680.7085666063499 397.68509185617137L692.0957111750636 400.26174500675626Q712.6258185361752 404.8609323508109 721.8241932242845 414.2255427260548Q730.9948619645382 423.61785904915445 730.9948619645382 439.1608957962309L730.9948619645382 439.1608957962309Q730.9948619645382 448.7471537543208 727.6978541697038 456.53252510178686Q724.4008463748694 464.31789644925294 718.2224200030369 469.69285033326867Q712.0439936312043 475.0678042172844 703.1503843695083 478.0600465857055Q694.2844810556679 481.05228895412665 683.1189840698001 481.05228895412665ZM797.0181357047933 481.05228895412665L797.0181357047933 481.05228895412665Q786.4344636238962 481.05228895412665 777.9564435800364 477.2842800457445Q769.4784235361766 473.4885651895066 763.410820955767 466.3958425384343Q757.3155124275019 459.3308258352177 754.0185046326674 449.4398024507146Q750.7492027856888 439.57648501406715 750.7492027856888 427.19192632254635L750.7492027856888 427.19192632254635Q750.7492027856888 415.0290152138716 754.0185046326674 405.0548739858012Q757.3155124275019 395.08073275773074 763.410820955767 388.0157160545142Q769.4784235361766 380.9229934034419 777.9564435800364 377.127278547204Q786.4344636238962 373.3315636909661 797.0181357047933 373.3315636909661L797.0181357047933 373.3315636909661Q807.3801602028442 373.3315636909661 815.5811207681465 377.127278547204Q823.7543753855931 380.9229934034419 829.5449184874451 387.60012683667793Q835.3077556414413 394.277260269914 838.4108218012855 403.47563495802336Q841.5138879611296 412.646303698277 841.5138879611296 423.61785904915445L841.5138879611296 423.61785904915445L841.5138879611296 431.1815828137745L767.4835952905624 431.1815828137745L767.4835952905624 435.9747117928195Q767.4835952905624 442.56872738248825 769.5892473275995 448.24844669291724Q771.6948993646366 453.92816600334623 775.5737320644419 458.1117641295647Q779.452564764247 462.32306820363885 785.1599900225318 464.7057797192335Q790.8397093329608 467.08849123482804 798.0155498276002 467.08849123482804L798.0155498276002 467.08849123482804Q807.7957494206804 467.08849123482804 815.0824137067431 462.5170098386291Q822.3413720449498 457.9178224945744 826.331028536178 449.3566846071473L826.331028536178 449.3566846071473L837.7181731048917 457.5299392245939Q832.7311024908565 468.0859053576351 822.1474304099596 474.5690971558809Q811.5914642769184 481.05228895412665 797.0181357047933 481.05228895412665ZM797.0181357047933 386.7135365052939L797.0181357047933 386.7135365052939Q790.4241201151244 386.7135365052939 785.0491662311088 389.0131301773213Q779.674212347093 391.28501790149284 775.7676736994321 395.496321975567Q771.888840999627 399.67992010178546 769.7000711190226 405.35963941221445Q767.4835952905624 411.03935872264344 767.4835952905624 417.82731594730245L767.4835952905624 417.82731594730245L767.4835952905624 419.21261334009006L824.3362002905639 419.21261334009006L824.3362002905639 417.0238434594857Q824.3362002905639 403.25398737517736 816.8555943695111 394.99761491416353Q809.3749884484582 386.7135365052939 797.0181357047933 386.7135365052939ZM883.7931643890059 478.66957743853203L867.8345384240932 478.66957743853203L867.8345384240932 375.74198115441646L883.7931643890059 375.74198115441646L883.7931643890059 392.5040796071459L884.5966368768227 392.5040796071459Q886.3975234874465 388.51442311591774 888.6694112116181 385.0234736860931Q890.9690048836454 381.5325242562684 894.2660126784798 378.92816515782783Q897.5630204733142 376.3238060593872 901.9405602345229 374.82768487517666Q906.3458059435874 373.3315636909661 912.3302906804296 373.3315636909661L912.3302906804296 373.3315636909661Q922.4983735434903 373.3315636909661 931.0595114309174 378.23551646143403Q939.6483552662003 383.1117632840463 943.8319533924188 394.277260269914L943.8319533924188 394.277260269914L944.247542610255 394.277260269914Q947.0181373958301 385.9100640174771 954.720390899729 379.6208138542216Q962.3949384557719 373.3315636909661 975.5552636872538 373.3315636909661L975.5552636872538 373.3315636909661Q991.3199480171762 373.3315636909661 1000.1858513310166 383.61047034544976Q1009.0794605927127 393.88937699993346 1009.0794605927127 412.646303698277L1009.0794605927127 412.646303698277L1009.0794605927127 478.66957743853203L993.1208346278 478.66957743853203L993.1208346278 415.4446044317079Q993.1208346278 401.67474834739954 987.7181747959286 394.69284948775027Q982.3432209119129 387.71095062810093 970.5681930732186 387.71095062810093L970.5681930732186 387.71095062810093Q965.7750640941737 387.71095062810093 961.4806421765322 388.90230638589827Q957.2139262067466 390.09366214369555 953.8060946204891 392.5040796071459Q950.4259689820875 394.88679112274053 948.4311407364734 398.5716821875554Q946.4363124908592 402.2565732523703 946.4363124908592 407.24364386640553L946.4363124908592 407.24364386640553L946.4363124908592 478.66957743853203L930.4776865259466 478.66957743853203L930.4776865259466 415.4446044317079Q930.4776865259466 401.67474834739954 925.0750266940752 394.69284948775027Q919.7000728100594 387.71095062810093 908.3406341892014 387.71095062810093L908.3406341892014 387.71095062810093Q903.5475052101565 387.71095062810093 899.1422595010921 388.90230638589827Q894.7647197398834 390.09366214369555 891.3845941014818 392.5040796071459Q887.9767625152243 394.88679112274053 885.898816426043 398.5716821875554Q883.7931643890059 402.2565732523703 883.7931643890059 407.24364386640553L883.7931643890059 407.24364386640553L883.7931643890059 478.66957743853203ZM1049.9734396278013 351.61010057205715L1049.9734396278013 351.61010057205715Q1044.7647214309204 351.61010057205715 1042.4928337067486 349.1165652650396Q1040.1932400347214 346.62302995802196 1040.1932400347214 342.6333734667938L1040.1932400347214 342.6333734667938L1040.1932400347214 340.0290143683532Q1040.1932400347214 336.03935787712504 1042.4928337067486 333.5458225701074Q1044.7647214309204 331.0522872630898 1049.9734396278013 331.0522872630898L1049.9734396278013 331.0522872630898Q1055.154451876827 331.0522872630898 1057.454045548854 333.5458225701074Q1059.725933273026 336.03935787712504 1059.725933273026 340.0290143683532L1059.725933273026 340.0290143683532L1059.725933273026 342.6333734667938Q1059.725933273026 346.62302995802196 1057.454045548854 349.1165652650396Q1055.154451876827 351.61010057205715 1049.9734396278013 351.61010057205715ZM1041.9941266453452 478.66957743853203L1041.9941266453452 375.74198115441646L1057.952752610258 375.74198115441646L1057.952752610258 478.66957743853203L1041.9941266453452 478.66957743853203ZM1107.82345875061 478.66957743853203L1091.8648327856972 478.66957743853203L1091.8648327856972 375.74198115441646L1107.82345875061 375.74198115441646L1107.82345875061 392.5040796071459L1108.5992252905708 392.5040796071459Q1112.394940146809 383.72129413687276 1119.293721162891 378.5402818878473Q1126.1647962311172 373.3315636909661 1137.7458824348212 373.3315636909661L1137.7458824348212 373.3315636909661Q1153.7045083997336 373.3315636909661 1162.9582949835549 383.61047034544976Q1172.2397875152315 393.88937699993346 1172.2397875152315 412.646303698277L1172.2397875152315 412.646303698277L1172.2397875152315 478.66957743853203L1156.2811615503188 478.66957743853203L1156.2811615503188 415.4446044317079Q1156.2811615503188 387.71095062810093 1132.952753455776 387.71095062810093L1132.952753455776 387.71095062810093Q1128.159624476731 387.71095062810093 1123.6712609240994 388.90230638589827Q1119.1828973714678 390.09366214369555 1115.5811241502201 392.5040796071459Q1112.0070568768283 394.88679112274053 1109.9014048397912 398.5716821875554Q1107.82345875061 402.2565732523703 1107.82345875061 407.24364386640553L1107.82345875061 407.24364386640553L1107.82345875061 478.66957743853203ZM1288.9372398836554 478.66957743853203L1279.9605127783916 478.66957743853203Q1270.9837856731283 478.66957743853203 1267.1049529733232 473.8764484594871Q1263.1984143256623 469.0833194804422 1262.2010002028555 461.9074789858026L1262.2010002028555 461.9074789858026L1261.2035860800484 461.9074789858026Q1257.8234604416466 471.4937369438925 1250.0380890941806 476.28686592293747Q1242.2527177467146 481.05228895412665 1231.5028099786832 481.05228895412665L1231.5028099786832 481.05228895412665Q1215.128594795934 481.05228895412665 1206.0687498471036 472.6850927016898Q1196.9811989504171 464.31789644925294 1196.9811989504171 449.93850951211806L1196.9811989504171 449.93850951211806Q1196.9811989504171 435.3928868878487 1207.6479888748813 427.6075155403826Q1218.3147787993457 419.8221441929166 1240.8674203539272 419.8221441929166L1240.8674203539272 419.8221441929166L1261.2035860800484 419.8221441929166L1261.2035860800484 409.6540613298559Q1261.2035860800484 398.68250597897844 1255.2191013432061 392.89196287712645Q1249.234616606364 387.10141977527445 1236.8777638626989 387.10141977527445L1236.8777638626989 387.10141977527445Q1227.513153487455 387.10141977527445 1221.2239033241995 391.28501790149284Q1214.934653160944 395.496321975567 1210.7510550347256 402.4782208352163L1210.7510550347256 402.4782208352163L1201.1647970766355 393.5014937299529Q1205.3483952028541 385.1065915296603 1214.5467698909633 379.2329305842411Q1223.717438631217 373.3315636909661 1237.6812363505155 373.3315636909661L1237.6812363505155 373.3315636909661Q1256.4381630488592 373.3315636909661 1266.80018754691 382.5299383790755Q1277.162212044961 391.7006071193291 1277.162212044961 408.0471163542223L1277.162212044961 408.0471163542223L1277.162212044961 464.7057797192335L1288.9372398836554 464.7057797192335L1288.9372398836554 478.66957743853203ZM1234.0794631292679 467.50408045266437L1234.0794631292679 467.50408045266437Q1240.0639478661103 467.50408045266437 1245.0510184801456 466.091077112021Q1250.0380890941806 464.7057797192335 1253.6398623154282 462.1014206207928Q1257.21392958882 459.524767470208 1259.2087578344344 456.1169358839506Q1261.2035860800484 452.73681024554895 1261.2035860800484 448.7471537543208L1261.2035860800484 448.7471537543208L1261.2035860800484 431.79111366660106L1240.0639478661103 431.79111366660106Q1226.2940917818019 431.79111366660106 1220.0325475664022 435.78077015782924Q1213.7432974031467 439.7704266490574 1213.7432974031467 447.3618563615332L1213.7432974031467 447.3618563615332L1213.7432974031467 451.54545448775167Q1213.7432974031467 459.1091782523717 1219.2290750785855 463.32048232644587Q1224.7148527540242 467.50408045266437 1234.0794631292679 467.50408045266437ZM1327.6424490381396 478.66957743853203L1311.683823073227 478.66957743853203L1311.683823073227 375.74198115441646L1327.6424490381396 375.74198115441646L1327.6424490381396 394.69284948775027L1328.6398631609468 394.69284948775027Q1331.4381638943773 387.29536141026466 1338.6140043890168 381.5325242562684Q1345.7898448836568 375.74198115441646 1358.3683452101677 375.74198115441646L1358.3683452101677 375.74198115441646L1364.546771582 375.74198115441646L1364.546771582 391.7006071193291L1355.1821612067565 391.7006071193291Q1342.2157776102645 391.7006071193291 1334.9291133242023 396.57685394194135Q1327.6424490381396 401.4808067124093 1327.6424490381396 408.8505888420391L1327.6424490381396 408.8505888420391L1327.6424490381396 478.66957743853203ZM1392.8622502905778 351.61010057205715L1392.8622502905778 351.61010057205715Q1387.6812380415527 351.61010057205715 1385.381644369525 349.1165652650396Q1383.1097566453536 346.62302995802196 1383.1097566453536 342.6333734667938L1383.1097566453536 342.6333734667938L1383.1097566453536 340.0290143683532Q1383.1097566453536 336.03935787712504 1385.381644369525 333.5458225701074Q1387.6812380415527 331.0522872630898 1392.8622502905778 331.0522872630898L1392.8622502905778 331.0522872630898Q1398.0709684874591 331.0522872630898 1400.342856211631 333.5458225701074Q1402.6424498836582 336.03935787712504 1402.6424498836582 340.0290143683532L1402.6424498836582 340.0290143683532L1402.6424498836582 342.6333734667938Q1402.6424498836582 346.62302995802196 1400.342856211631 349.1165652650396Q1398.0709684874591 351.61010057205715 1392.8622502905778 351.61010057205715ZM1384.8829373081217 478.66957743853203L1384.8829373081217 375.74198115441646L1400.8415632730344 375.74198115441646L1400.8415632730344 478.66957743853203L1384.8829373081217 478.66957743853203ZM1473.6527942379485 481.05228895412665L1473.6527942379485 481.05228895412665Q1463.2907697398973 481.05228895412665 1454.7019259046147 477.2842800457445Q1446.1407880171873 473.4885651895066 1440.045479488922 466.3958425384343Q1433.9778769085128 459.3308258352177 1430.5700453222553 449.4398024507146Q1427.1899196838535 439.57648501406715 1427.1899196838535 427.19192632254635L1427.1899196838535 427.19192632254635Q1427.1899196838535 415.0290152138716 1430.5700453222553 405.0548739858012Q1433.9778769085128 395.08073275773074 1440.045479488922 388.0157160545142Q1446.1407880171873 380.9229934034419 1454.7019259046147 377.127278547204Q1463.2907697398973 373.3315636909661 1473.6527942379485 373.3315636909661L1473.6527942379485 373.3315636909661Q1484.042524683855 373.3315636909661 1492.5205447277149 377.127278547204Q1500.9985647715748 380.9229934034419 1507.1769911434071 388.0157160545142Q1513.3554175152399 395.08073275773074 1516.763249101497 405.0548739858012Q1520.1433747398987 415.0290152138716 1520.1433747398987 427.19192632254635L1520.1433747398987 427.19192632254635Q1520.1433747398987 439.57648501406715 1516.763249101497 449.4398024507146Q1513.3554175152399 459.3308258352177 1507.1769911434071 466.3958425384343Q1500.9985647715748 473.4885651895066 1492.5205447277149 477.2842800457445Q1484.042524683855 481.05228895412665 1473.6527942379485 481.05228895412665ZM1473.6527942379485 466.89454959983783L1473.6527942379485 466.89454959983783Q1486.61917783444 466.89454959983783 1494.820138399742 458.9152366173815Q1502.9933930171887 450.93592363492513 1502.9933930171887 434.58941440003196L1502.9933930171887 434.58941440003196L1502.9933930171887 419.8221441929166Q1502.9933930171887 403.47563495802336 1494.820138399742 395.496321975567Q1486.61917783444 387.51700899311066 1473.6527942379485 387.51700899311066L1473.6527942379485 387.51700899311066Q1460.6864106414569 387.51700899311066 1452.5131560240102 395.496321975567Q1444.3399014065635 403.47563495802336 1444.3399014065635 419.8221441929166L1444.3399014065635 419.8221441929166L1444.3399014065635 434.58941440003196Q1444.3399014065635 450.93592363492513 1452.5131560240102 458.9152366173815Q1460.6864106414569 466.89454959983783 1473.6527942379485 466.89454959983783Z " fill="#ec0000" transform="matrix(0.5756036249537662,0,0,0.5756036249537662,0,66.27486755175586)"/></g></svg>